<svg width="481" height="764" viewBox="0 0 481 764" fill="none" xmlns="http://www.w3.org/2000/svg">
<path d="M445.916 396.382C442.497 399.802 439.745 402.925 437.579 407.258C437.579 412.905 437.724 419.311 437.196 424.86C437.031 426.597 436.399 428.32 436.209 430.096C435.96 432.422 435.748 434.847 435.222 437.125C434.156 441.746 434.059 446.45 433.41 451.122C432.582 457.083 431.778 462.538 431.778 468.542C431.778 471.782 433.304 474.719 433.571 477.927C433.665 479.059 432.984 482.459 433.772 483.405C433.959 483.629 434.722 487.319 435.404 486.466C436.19 485.484 437.224 484.465 438.143 483.546C442.999 478.69 447.521 473.434 452.2 468.381C453.942 466.5 455.61 464.515 457.235 462.521C458.755 460.654 460.677 458.997 461.867 456.882C464.095 452.921 466.738 449.088 469.321 445.342L469.419 445.201C470.961 442.965 471.957 440.296 473.467 437.991C475.086 435.519 477.074 432.366 477.737 429.451C478.251 427.191 478.995 425.141 479.348 422.846C479.99 418.671 479.992 414.024 479.992 409.795C479.992 402.397 480.796 392.494 474.192 387.4C471.563 385.372 468.124 383.714 464.767 385.225C461.81 386.556 459.135 389.209 456.067 390.139C454.225 390.697 452.335 392.398 450.71 393.482C449.209 394.483 447.171 395.128 445.916 396.382Z" fill="#FAD2AD"/>
<path d="M12.8875 389.568C18.6852 383.771 25.6003 391.577 28.638 396.559C29.8217 398.5 30.509 401.865 32.2659 404.124C34.5003 406.997 35.4908 411.415 37.2211 414.875C40.4111 421.255 42.8233 428.563 43.8133 435.492C44.701 441.706 43.769 448.384 43.769 455.004C43.769 460.776 42.1763 466.245 42.1763 472.214C42.1763 474.996 42.4671 483.203 39.7872 484.779C35.6908 487.189 30.1226 488.457 25.8064 489.69C23.2426 490.422 21.0711 482.959 20.7185 481.372C18.8658 473.035 19.3965 464.274 17.533 455.888C15.5103 446.786 9.52503 437.488 9.52503 428.237C9.52503 423.74 6.33954 420.098 6.33954 415.672C6.33954 412.902 6.15008 410.527 5.54317 407.796C5.08144 405.719 4.64519 399.029 6.73773 397.355C8.51366 395.934 7.35092 393.201 9.12685 391.78C10.2892 390.851 11.8611 390.595 12.8875 389.568Z" fill="#FAD2AD"/>
<path d="M107 175.5C125 165.444 130.504 170.117 154 162.444C162.376 162.444 168.793 158.444 177 158.444H210.444C234.164 158.444 253.198 160.557 274.889 168.444C295.295 175.865 319.5 180.5 332.5 187C345.5 193.5 343.5 192 356.5 195C369.5 198 380 200.25 388.5 204.5C397 208.75 396.737 206.788 400.556 214C403.8 220.128 407.1 230.126 411.444 235.556C415.832 241.04 419.339 254.027 420.889 261C421.998 265.99 425.917 276.734 430 280C433.872 283.098 433 302.735 433 308V336C433 354.721 439 352.5 435 393C431 433.5 435 460.5 431 506V533.5C431 544.781 429.5 552.5 427 558.5C422 570.5 422.44 576.886 419.5 583.5C418.177 586.476 416.5 592.5 414 603C411.5 613.5 412.588 614 408 627C403.412 640 404.071 637.5 400.5 650C398.643 656.5 396 654 390.5 660C388.811 661.843 386.889 661 379.444 670C372 679 369.45 682.5 363.5 689.5C357.55 696.5 352 700.5 347.111 705C342.222 709.5 336.5 715 324 725.5C311.5 736 298.453 744.643 285.5 751.5C271.468 758.929 258.888 759 242.5 759C222.868 759 219.5 760.5 201 759C182.5 757.5 171.444 758.056 164 753.5C156.556 748.944 151.466 747.355 146.556 742.444C141.903 737.792 135.64 731.159 130.111 728C123.128 724.01 120.143 714.915 114 710C101.423 699.938 94.7963 686.907 83.4444 675.556C72.0351 664.146 63.5 661.5 56.8889 643C54.7304 633.287 51.5882 625 49 614C47 605.5 43.4715 598.015 43 590C42.5336 582.072 39.5 569.5 37.5 560C35 553.5 35 552 31 537.5C29 528.5 29 516.037 29 512V483C29 473.25 31 465.308 31 456C31 446.855 33 438.105 33 429.5C33 391.763 39 358 39 320C39 310.875 38.8905 293.331 45 286C46.7595 283.889 48.8446 273.449 49.5 270.5C50.7284 264.972 51.4916 263.779 52.8889 258.889C57.2928 243.475 59.44 225.075 69.5 212.5C72.967 208.166 78.8889 198 86 190.5C93.1111 183 89 185.556 107 175.5Z" fill="#FFE8D3"/>
<path d="M208.195 446.731C208.983 433.344 210.772 425.679 211.5 417.5C212.228 409.321 212.396 406.263 212.5 404.5C212.677 401.485 212.5 397.021 212.5 394C212.5 388.257 212.187 388.741 210.728 383.633C210.008 381.114 194.029 358.767 195.894 358.235C203.957 355.931 215.407 358.162 223.753 358.162H242.06C249.822 358.162 255.801 356.368 263.551 358.09C266.206 358.68 271.232 358.666 273.826 358.09C275.785 357.655 278.742 353.419 281.134 354.544C283.57 355.691 271.593 377.555 270.642 380.883C267.844 390.675 262.899 399.846 262.899 410.913C262.899 422.142 261.91 434.139 264.274 444.777C265.402 449.853 266.278 456.287 268.399 461.058C270.789 466.437 270.975 472.064 273.319 477.339C277.063 485.763 287.126 495.969 287.647 505.343C287.929 510.43 285 511.5 280.5 514.5C276 517.5 273.581 519.218 268.5 519.5C265.484 519.668 268.999 520.393 263.5 520.5C259.366 520.5 253.5 523 250.5 525C247.5 527 241.276 528.524 235.475 527.557C229.429 526.55 225.369 523.029 219.628 521.262C216.634 520.341 212.614 518.368 209.498 518.368C206.987 518.368 205.298 517.157 203 516.5C197.991 515.069 193.472 515.921 188.5 514.5C184.309 513.303 183.5 502.935 183.5 498.5C183.5 494.065 191.853 485.217 194 483.5C198.911 479.571 197.477 476.279 200.5 472.5C203.305 468.994 202.615 465.892 204.939 461.71C206.58 458.755 208.009 449.902 208.195 446.731Z" fill="url(#paint0_linear)"/>
<path d="M206.489 632.348C201.506 632.348 199.404 630.922 195.383 628.408C192.5 626.5 188.978 626.439 185.753 626.439C184.007 626.439 179.751 625.621 178.887 627.177C177.758 629.209 179.745 631.161 180.091 633.059C180.393 634.725 180.018 636.567 180.118 638.257C180.202 639.69 182.315 641.159 182.963 642.196C185.201 645.777 191.773 647.385 195.41 648.597C200.122 650.168 205.472 652.68 210.538 653.029C214.298 653.288 218.512 654.989 221.918 656.449C225.614 658.033 229.37 657.46 233.299 656.968C242.112 655.867 251.064 651.497 258.904 647.503C261.577 646.142 265.137 645.254 267.522 643.4C270.28 641.254 271.24 638.563 272.665 635.357C273.739 632.94 274.587 630.616 275.756 628.408C277.042 625.98 273.976 626.439 272.446 626.439C269.64 626.439 264.83 626.294 263.227 628.299C261.225 630.801 256.69 631.551 253.789 632.84C250.857 634.143 247.506 635.125 244.132 635.302L243.722 635.324C235.305 635.767 225.596 636.279 217.541 634.208C214 633.297 210.113 632.348 206.489 632.348Z" fill="#FAD2AD"/>
<path d="M312.201 587.993C313.919 589.712 319.246 591.98 319.103 591.978C318.659 591.975 318.461 592.21 318.027 592.108C317.554 591.997 317.107 591.799 316.643 591.657C316.179 591.514 315.737 591.33 315.303 591.112C315.124 591.022 314.941 590.917 314.806 590.765C314.756 590.71 314.725 590.637 314.673 590.585C314.625 590.537 314.551 590.507 314.491 590.477C314.336 590.399 314.177 590.328 314.024 590.247L313.936 590.2C313.624 590.034 313.311 589.867 312.986 589.728C312.857 589.673 312.725 589.632 312.597 589.577C312.456 589.517 312.321 589.449 312.185 589.381L312.153 589.365C312.028 589.302 311.939 589.254 311.835 589.16C311.705 589.042 311.56 588.944 311.431 588.825L311.425 588.82C311.292 588.697 311.167 588.582 311.007 588.495C310.887 588.43 310.763 588.386 310.637 588.33C310.596 588.312 310.548 588.266 310.519 588.23C310.453 588.148 310.316 588.122 310.229 588.079C303.727 590.246 301.136 597.102 293.628 597.102C282.751 597.102 271.891 597.777 261.463 595.323C256.744 594.213 251.417 595.821 246.733 595.821C244.872 595.821 243.291 596.212 241.609 596.96C240.487 597.458 237.546 598.964 236.485 599.023C231.836 599.282 226.577 599.691 222.395 597.6C218.79 595.798 216.417 595.181 212.148 595.181H185.249C175.933 595.181 166.984 597.102 157.852 597.102C155.596 597.102 153.564 596.587 151.305 596.462C149.326 596.352 147.453 594.54 145.541 594.54C144.022 594.54 142.5 595 142 595C141.5 595 139.025 594.453 141.983 593.757C143.237 593.462 152.25 588.033 151.305 588.847C150.305 591.347 149.316 592.578 149 593C149.529 593.935 148.824 595.181 149.384 595.181C153.69 595.181 158.035 594.54 162.193 594.54C165.766 594.54 170.2 594.808 173.365 593.402C176.478 592.018 180.964 591.978 184.467 591.978H208.946C211.648 591.978 217.196 592.687 219.336 594.398C221.943 596.484 226.134 595.821 229.44 595.821C233.093 595.821 235.672 593.9 239.047 593.9C242.362 593.9 245.783 592.619 249.294 592.619C253.631 592.619 257.954 593.029 262.103 593.259C265.595 593.453 268.581 594.54 272.351 594.54H283.879C287.296 594.54 290.828 592.813 294.126 592.619C297.382 592.427 299.335 589.6 302.452 589.417C303.777 589.339 304.972 587.66 306.294 587.495C307.585 587.334 307.688 583.637 308.714 584.435C309.976 585.417 311.084 586.876 312.201 587.993Z" fill="#FAD2AD" stroke="#FAD2AD" stroke-width="5" stroke-linecap="round"/>
<path d="M170.703 377.916C167.97 374.974 170.514 376.789 164.415 371.372C158.316 365.955 157.248 366.74 154.777 366.576L149.184 366.205C147.798 366.113 146.21 366.161 144.824 366.069C140.475 365.781 137.414 364.709 132.9 366.014C127.784 367.494 122.396 367.868 117.692 370.52C113.292 373 108.229 373.845 103.908 376.019C100.309 377.83 95.5567 377.962 92.4725 381.143C91.3576 382.293 83.5584 388.209 85.5109 389.913C88.8406 392.818 93.1289 394.541 96.9077 396.877C99.8429 398.692 102.87 401.027 105.971 402.421C108.785 403.685 112.787 403.308 115.376 404.923C117.622 406.325 120.682 405.096 123.095 406.171C125.454 407.221 128.348 406.886 130.872 407.054C140.361 407.683 149.396 401.592 158.192 399.266C160.5 398.656 162.831 397.326 164.98 396.244C166.78 395.339 168.705 395.121 170.284 393.655C171.59 392.442 177.307 388.08 177.477 386.616C177.997 382.159 172.753 380.121 170.703 377.916Z" fill="url(#paint1_radial)"/>
<path d="M84.0446 392.661C89.0801 390.848 93.424 385.248 97.962 381.99C102.5 378.731 106.24 376.476 109.903 374.644C118.033 370.579 123 367.704 133.501 367.062C144.002 366.421 142.5 366 148.054 366.317C153.607 366.634 150.5 366.589 154.239 367.703C157.978 368.818 158 369.082 159.851 370.078C161.701 371.075 169.172 375.03 172.022 380.731" stroke="#A400F1" stroke-width="3" stroke-linecap="round"/>
<path d="M151 370C155.012 378.19 153 386 151 389.5C149 393 147 395 143.801 395.759C140.602 396.518 140.444 396.746 138.99 397.162C135.429 398.179 127 396.162 124.27 394.122" stroke="#A400F1" stroke-width="3" stroke-linecap="round"/>
<path d="M114.359 376.258C113 380 115.129 387.064 119 389" stroke="#A400F1" stroke-width="3" stroke-linecap="round"/>
<path d="M203.301 378.749C205.177 383.023 207.224 387.483 209.045 391.645C209.531 392.757 210.544 399.01 208.769 396.643" stroke="#A400F1" stroke-width="3" stroke-linecap="round"/>
<path d="M276.864 376.264C275.5 382.783 272.812 389.449 269.906 395.428C266.883 401.645 265.297 406.619 264.438 413.487C263.586 420.301 262.947 426.759 262.947 433.673C262.947 435.702 262.624 438.156 263.058 440.162C263.595 442.648 264.438 444.648 264.438 447.231C264.438 450.084 264.822 452.362 264.935 455.184C265.012 457.098 266.426 459.444 266.426 461.508C266.426 465.308 269.409 468.599 269.409 472.194" stroke="#A400F1" stroke-width="3" stroke-linecap="round"/>
<path d="M279 487.5C281.482 489.439 282 493 283.88 495.759C285.761 498.519 285.365 497.466 286 499C286.635 500.534 286.511 500.374 286.78 501.586C287.37 504.241 287.384 506.004 286.255 508.545C285.625 509.963 282.922 512.273 281.285 512.273" stroke="#A400F1" stroke-width="3" stroke-linecap="round"/>
<path d="M270.912 516.77C269.795 516.116 265.655 514.115 264.063 515.389C263.858 515.553 260.559 518.037 261.081 516.77C262.266 513.892 267.413 514.929 269.917 514.781C270.502 514.747 272.906 512.523 272.292 511.91C271.587 511.205 273.218 514.187 272.513 514.892C271.008 516.397 270.415 515.712 270.415 513.787C270.415 511.557 268.418 513.787 267.432 513.787" stroke="#A400F1" stroke-width="3" stroke-linecap="round"/>
<path d="M204.81 515.781C201.229 515.099 200.027 514.408 197.603 512.523C196.696 511.818 195.742 511.593 194.648 511.28C194.345 511.194 192.362 510.793 193.626 511.805C196.527 514.125 200.466 515.284 204.313 515.284" stroke="#A400F1" stroke-width="3" stroke-linecap="round"/>
<path d="M46.4809 269.285C46.3842 274.406 44.3795 278.564 43.5301 283.49C42.8046 287.698 42.0015 291.706 40.9225 295.842C39.5711 301.022 38.0647 306.258 37.217 311.556C35.1803 324.285 34.8938 336.959 34.7466 349.915C34.6914 354.776 33.5114 359.49 33.5114 364.395C33.5114 367.705 33.4788 370.889 32.7566 374.139C32.3695 375.88 31.0914 377.403 31.041 379.217C30.951 382.457 30.8165 385.864 31.3498 389.064C32.3253 394.917 29.8058 400.02 29.8058 405.773" stroke="#A400F1" stroke-width="3" stroke-linecap="round"/>
<path d="M29.9988 443.655C29.9988 449.401 29.408 455.501 29.098 460.771C28.8285 465.351 27.2963 469.649 27.2963 474.284V488.697C27.2963 493.09 27 498 27.3464 503.511C27.6927 509.021 29.9988 521.303 29.9988 529.685C29.9988 533.98 30.8025 536.891 31.6513 541.446C32.5 546 34.2089 551.316 35.1045 554.658C36 558 38.1063 564.883 38.1063 567.97C38.1063 573.062 38.9156 579.069 39.7078 583.284C40.5 587.5 41.6214 591.392 42.8107 595.696C44 600 45.4914 605.31 46.1638 609.008C46.932 613.233 48 618.5 48.9163 622.471C49.8327 626.441 52 633.5 54.3213 639.136C56.6427 644.772 59.5 649.5 61.3278 652.849C63.1556 656.198 67.0058 663.877 70.9868 667.062C73.0695 668.728 74.4202 671.847 76.3918 673.818C78.6297 676.056 80.7091 678.533 82.6476 681.025C86.0731 685.429 91.2266 690.337 95.5 694C101.889 699.476 103 703.5 108.5 707.5C114 711.5 113.229 710.007 117 714C120.452 717.655 120.759 718.5 123.5 722C126.241 725.5 132 730.5 134.5 732.5C137 734.5 139 737 142.413 740.04C145.826 743.079 147.627 744.689 150.22 747.146C160.119 756.524 170.438 756.236 183.001 757.806C189.949 758.675 196.969 758.757 204.02 758.757C210.881 758.757 217.693 760.559 224.589 760.559C231.614 760.559 238.24 762.36 245.308 762.36C251.242 762.36 256.737 761.46 262.674 761.46C267.173 761.46 270.787 759.658 275.286 759.658C278.872 759.658 288 755.5 293 752C298 748.5 300.831 745.183 303.5 743C306.018 740.94 318.5 729.5 322 726C325.5 722.5 328.963 720.681 334.688 715.529C340.252 710.522 349.34 704.077 355.335 699.414C368.429 689.23 373.811 683.937 384.764 671.767C390.932 664.914 394 659.5 398.75 648.091C403.499 636.682 404.5 635.5 408.13 626.053C411.76 616.607 411.307 609.481 414.333 602.672C416.317 598.208 415.487 596.087 418.994 587.794C422.5 579.5 425.91 574.111 427.201 567.011C430.521 548.747 432.574 530.642 432.574 511.747C432.574 502.843 434.699 493.885 434.699 485.236V474.609C434.699 471.823 435 470.5 435.825 463.5C436.649 456.5 437.887 451.163 437.887 443.789C437.887 435.841 436.825 428.211 436.825 419.876" stroke="#A400F1" stroke-width="3" stroke-linecap="round"/>
<path d="M447.076 443.257C447.076 436.142 450.532 431.469 455.578 426.784C458.393 424.17 463.017 417.379 463.017 413.5" stroke="#A400F1" stroke-width="3" stroke-linecap="round"/>
<path d="M451.327 392.244C458.568 383.248 471.994 376.662 477.66 390.119C479.335 394.097 478.959 398.497 478.959 402.872C478.959 407.969 479.115 416.336 477.069 420.939C475.3 424.919 476.369 430.818 473.409 434.519C469.538 439.358 466.404 445.513 463.253 450.933C457.883 460.169 452.673 469.258 448.138 478.329" stroke="#A400F1" stroke-width="3" stroke-linecap="round"/>
<path d="M309.857 589.3C302.306 590.958 296.216 597.802 288.602 597.802C282.123 597.802 275.224 598.346 269.236 596.503C262.806 594.525 254.974 594.614 248.217 594.614C241.647 594.614 237.647 599.928 231.212 599.928C223.961 599.928 218.242 593.551 211.02 593.551C203.935 593.551 196.849 593.551 189.764 593.551C183.033 593.551 176.66 597.802 169.572 597.802C166.124 597.802 150.805 599.592 149.379 596.739" stroke="#A400F1" stroke-width="3" stroke-linecap="round"/>
<path d="M197.204 627.56C208.56 632.386 217.926 633.936 230.681 633.936C235.604 633.936 259.907 633.576 259.907 627.56" stroke="#A400F1" stroke-width="3" stroke-linecap="round"/>
<path d="M24.5288 392.37C20.4245 389.967 13.7979 384.375 8.82342 388.355C6.95494 389.85 2.33727 396.594 2.21064 398.746C1.94187 403.316 2.21064 407.984 2.21064 412.562C2.21064 418.661 4.17523 419.64 6.46172 424.784C8.39976 429.145 9.06297 432.941 10.7128 437.478C11.4427 439.486 12.8383 441.311 12.8383 443.383C12.8383 445.509 12.3145 448.391 13.3697 450.291C14.8119 452.887 14.9639 461.139 14.9639 464.107C14.9639 468.128 16.823 473.404 18.1522 477.391" stroke="#A400F1" stroke-width="3" stroke-linecap="round"/>
<path d="M187.486 350.557C184.475 348.277 181.742 346.203 177.809 346.203C175.647 346.203 172.274 346.841 170.337 345.961C169.06 345.381 166.277 343.784 164.988 343.784C162.962 343.784 159.77 341.399 163.456 340.908C166.373 340.519 169.536 340.881 172.487 340.881C175.891 340.881 178.486 342.305 181.787 343.192C183.301 343.599 186.402 343.577 187.378 345.235C187.828 346 189.833 346.543 189.206 347.171C188.713 347.664 173.427 334.53 170.552 333.731C167.045 332.757 163.575 331.44 164.289 336.795C164.782 340.494 168.311 339.219 170.794 341.15C171.543 341.732 172.431 342.354 173.24 342.816C174.351 343.451 174.245 344.351 173.24 343.058C171.608 340.96 170.523 339.757 168.133 338.22C163.391 335.172 158.275 331.795 152.758 330.613C151 330.237 145.799 328.805 144.318 330.344C140.935 333.862 149.507 334.245 150.823 334.699C152.913 335.419 156.509 336.874 157.972 338.704C159.652 340.803 160.096 342.87 156.521 341.848C155.119 341.448 154.055 339.802 152.892 338.946C151.38 337.831 149.721 336.964 148.081 336.07C146.948 335.452 146.06 334.29 145.151 333.382C142.981 331.212 147.357 331.204 148.565 331.204C152.991 331.204 157.926 331.158 161.252 334.484C161.646 334.878 163.37 337.234 163.294 335.183C163.153 331.358 154.305 328.901 151.683 327.818C150.051 327.144 147.711 325.007 145.877 324.915C143.415 324.792 140.882 325.33 138.405 325.399C134.926 325.495 136.028 327.308 138.512 328.302C141.581 329.529 144.899 330.531 147.812 332.065C148.876 332.624 149.574 338.838 147.06 338.838C145.855 338.838 144.338 337.252 143.216 336.795C141.441 336.072 139.661 335.502 137.948 334.618C136.007 333.616 133.664 332.929 132.572 330.963C131.104 328.32 133.321 326.195 136.389 326.877C138.118 327.261 140.245 330.143 140.797 331.688C141.479 333.597 140.798 333.22 138.835 333.516C137.23 333.758 135.403 333.896 134.158 332.763C131.886 330.698 127.951 330.274 125.341 328.893C123.891 328.125 124.792 326.581 125.449 325.399C126.428 323.637 129.918 324.415 131.631 324.055C132.191 323.937 132.562 323.844 132.921 324.323C132.992 324.417 131.519 324.457 131.255 324.538C129.287 325.149 127.586 326.366 125.449 326.366C123.948 326.366 121.471 326.285 120.181 327.092C118.221 328.317 118.099 328.552 116.525 327.334C115.469 326.516 111.61 325.44 113.73 323.705C114.916 322.735 116.383 322.98 117.815 322.98C118.48 322.98 122.184 322.582 122.304 321.743C122.532 320.149 111.247 324.551 110.343 324.888C109.031 325.376 107.723 325.798 106.446 326.366C105.344 326.856 110.563 326.872 110.746 326.877C111.963 326.911 122.266 327.732 117.09 329.457C113.625 330.612 107.633 332.188 103.838 331.581C102.602 331.383 97.8538 331.832 97.1186 331.097C95.1611 329.139 102.32 327.546 102.978 327.441C103.019 327.435 107.147 326.535 105.989 325.99C105.105 325.574 102.728 325.684 101.742 325.99C100.339 326.425 93.2302 327.656 93.1406 329.269C93.0129 331.568 99.1327 329.278 99.4034 328.06C100.096 324.943 96.4355 324.956 94.3501 325.882C93.1343 326.423 91.9084 327.115 90.9634 328.06C89.9535 329.07 88.163 329.601 87.3347 330.532C85.6389 332.44 89.7436 329.248 90.2108 328.839C91.459 327.747 92.8513 326.065 94.3501 325.399C97.6158 323.947 95.4852 320.638 100.237 320.56C102.672 320.52 105.112 320.56 107.548 320.56C110.543 320.56 109.841 322.998 112.01 324.323C112.911 324.874 114.839 324.552 114.321 325.99C113.796 327.45 111.185 327.721 109.859 327.925C105.344 328.62 100.695 330.793 96.5273 332.763C93.0352 334.414 88.2019 335.531 85.8833 331.473C84.1911 328.512 89.3711 326.093 90.7752 324.162C91.5018 323.163 95.5551 321.761 91.9848 323.651C90.8602 324.247 88.9416 324.329 88.0336 325.237C85.5131 327.758 83.2617 329.899 79.8355 331.204C78.3424 331.773 75.684 331.985 75.2661 333.865C74.5618 337.035 77.2091 338.373 79.5936 337.118C80.9247 336.417 81.1747 335.266 82.1202 334.215C82.6771 333.596 84.6628 331.722 83.948 331.903C80.8621 332.688 75.9273 332.431 74.2716 335.559C73.538 336.945 72.9353 337.11 71.96 338.085C71.4172 338.628 69.9025 340.294 68.9496 340.182C67.9732 340.067 68.4657 335.812 68.4657 335.075C68.4657 334.451 68.1165 332.459 68.7614 332.172C70.8267 331.254 73.1708 331.345 75.2123 330.452C75.6928 330.242 78.9722 328.164 78.0615 329.834C77.1305 331.54 75.1973 332.272 74.2716 333.892C72.9549 336.197 70.1997 336.873 68.9227 339.214C67.4517 341.911 64.4177 342.796 62.6599 344.993C61.6628 346.24 61.2084 345.452 61.2084 344.268C61.2084 342.259 61.6746 341.167 63.0362 339.806C63.283 339.559 64.8722 337.429 65.4553 338.085C65.8516 338.531 63.7479 341.968 63.52 342.709C62.9378 344.601 61.6923 345.703 61.6923 347.654C61.6923 349.612 59.2732 350.535 59.2732 352.009" stroke="#A400F1" stroke-width="3" stroke-linecap="round"/>
<path d="M274.503 362.551C275.32 358.831 276.819 355.878 280.201 354.088C282.012 353.129 282.934 347.079 283.888 349.395C284.093 349.893 284.76 358.242 285.731 356.057C286.702 353.874 284.269 348.319 286.569 346.882C291.74 343.65 292.431 339.079 297.546 336.156C300.205 334.637 304.503 334.897 301.317 338.083C300.286 339.114 299.442 340.415 298.3 341.393C295.994 343.37 292.407 344.34 290.508 346.714C289.453 348.032 282.326 350.141 285.983 351.406C290.561 352.991 291.424 350.013 295.2 348.934C295.631 348.811 296.962 347.481 297.085 347.049C297.654 345.058 297.279 345.582 299.39 344.829C301.277 344.154 301.165 346.455 300.856 347.845C300.592 349.034 298.686 349.68 297.881 350.485C295.217 353.148 302.211 351.127 303.16 350.652C304.825 349.82 308.888 349.17 309.947 347.845C310.649 346.968 312.329 347.703 313.299 347.426C313.806 347.281 315.069 345.206 314.388 345.206C311.61 345.206 309.195 347.005 306.344 346.127C302.712 345.01 303.819 342.868 306.344 340.848C306.845 340.448 313.302 339.646 308.858 338.377C304.376 337.096 312.582 333.894 314.095 333.894C317.288 333.894 318.753 336.91 322.013 336.91C322.963 336.91 324.868 336.571 325.616 335.989C326.957 334.946 323.183 338.36 322.013 339.592C320.909 340.754 313.285 342.55 317.153 343.656C318.738 344.108 320.413 342.943 322.013 342.943C328.62 342.943 334.725 342.702 341.453 343.991C345.368 344.74 340.433 342.089 339.065 341.142C337.74 340.225 336.429 339.843 334.834 339.927C331.769 340.088 329.716 342.243 327.879 344.284C325.97 346.405 321.287 345.272 322.055 341.812C322.662 339.08 331.386 333.493 333.661 334.061C334.468 334.263 339.726 335.533 339.191 336.91C338.909 337.634 337.794 340.318 338.018 340.094C339.884 338.228 343.348 339.302 345.81 339.173C346.833 339.119 347.351 336.652 347.612 335.737C348.566 332.397 353.986 327.861 357.835 327.861C361.224 327.861 355.49 333.352 354.776 334.271C354.418 334.732 351.018 337.581 353.017 337.581C354.471 337.581 356.535 335.856 357.29 334.648C359.768 330.683 368.823 334.452 371.618 335.57C374.518 336.729 368.348 339.927 366.884 339.927C363.509 339.927 360.473 342.943 357.08 342.943C353.948 342.943 350.905 343.697 347.654 343.697C344.416 343.697 344.096 338.851 346.313 337.078C348.158 335.602 354.798 337.664 357.457 337.664C360.112 337.664 362.737 339.737 365.334 340.681C367.051 341.305 368.304 342.845 370.11 343.32C372.81 344.031 380.502 343.113 382.176 345.96C383.247 347.781 385.187 351.735 382.176 348.39C380.613 346.653 379.511 343.348 377.484 342.189C376.591 341.679 374.469 337.771 375.976 336.91C377.81 335.862 382.292 338.454 383.852 339.927C386.14 342.088 385.741 344.597 387.623 346.714C389.214 348.504 390.803 350.319 392.524 351.658C394.201 352.962 389.915 357.323 389.424 357.104C387.79 356.378 386.869 353.283 386.869 351.658C386.869 349.052 389.496 347.911 391.561 349.563C392.956 350.679 395.076 351.24 396.672 352.747C398.866 354.819 398.18 357.844 398.18 360.665C398.18 361.652 399.806 365.318 400.946 365.525C402.95 365.89 408.334 367.701 405.554 364.226C404.296 362.654 403.564 359.324 402.538 357.272C401.285 354.766 398.976 353.459 397.091 351.574C394.321 348.804 393.143 342.765 389.885 340.848C387.977 339.726 385.259 337.741 383.684 336.324C381.551 334.403 378.117 334.431 375.557 333.517C372.448 332.406 370.418 330.877 366.884 330.877C362.988 330.877 359.091 330.877 355.195 330.877C352.022 330.877 347.747 329.99 345.098 332.05C342.891 333.767 340.102 333.894 337.096 333.894" stroke="#A400F1" stroke-width="3" stroke-linecap="round"/>
<path d="M183.28 407.583C179.488 407.676 176.688 407.846 174.152 410.381C172.795 411.738 171.583 413.09 170.177 414.356C166.479 417.684 163.156 418.536 159.135 420.834C155.844 422.715 151.722 423.608 148.461 425.471" stroke="#A400F1" stroke-width="3" stroke-linecap="round"/>
<path d="M189.906 485.761C184.162 485.761 182.63 487.368 178.79 491.208C175.93 494.068 176.655 498.053 176.655 501.993C176.655 504.92 179.586 510.035 182.323 511.599C184.043 512.582 185.924 514.249 187.918 514.249C189.106 514.249 192.556 514.078 192.556 512.262C192.556 510.46 187.685 512.605 187.292 511.231C186.902 509.863 185.489 508.802 184.458 507.771C181.758 505.071 180.63 501.323 180.63 497.355C180.63 492.728 182.797 492.399 186.299 490.399C187.608 489.65 189.96 487.129 191.746 488.558C192.592 489.235 192.418 485.632 189.243 487.748" stroke="#A400F1" stroke-width="3" stroke-linecap="round"/>
<path d="M28.6416 352.338C27.0393 351.172 23.2344 349.544 23.372 347.068C23.4905 344.934 26.879 344.943 27.8888 343.68C29.4573 341.72 28.3785 342.204 26.8014 340.627C25.5011 339.327 24.6454 337.208 23.372 335.776C20.2754 332.292 26.8621 328.248 30.5237 328.248C33.9291 328.248 30.8461 327.602 29.7709 326.742C28.2417 325.519 26.1636 323.218 24.1248 322.978C21.7278 322.696 21.9241 321.426 23.5393 320.134C24.7878 319.135 28.2154 320.271 29.7709 319.925C31.6953 319.497 27.4985 317.547 26.7596 316.956C24.7125 315.318 22.3197 313.962 19.9425 312.773C19.2439 312.424 13.8731 307.922 16.5967 307.922C18.6637 307.922 21.0222 308.812 23.0374 309.26C25.13 309.725 27.2738 309.154 29.3526 309.804C34.5836 311.439 26.3125 305.762 25.4631 304.158C23.9117 301.227 22.305 299.641 27.0942 299.641C29.0042 299.641 30.7839 298.888 32.6566 298.888C33.6329 298.888 30.6465 299.138 29.729 298.804C27.8087 298.106 25.533 296.651 23.7902 295.542C23.1331 295.124 18.5338 294.53 18.9388 293.618C19.5512 292.24 23.5568 291.957 24.8776 291.193C26.2781 290.382 27.0968 288.995 28.6416 288.181C30.5717 287.166 32.0158 285.805 34.4132 285.672C35.4646 285.614 32.3045 286.277 31.2765 286.048C28.1682 285.358 24.9475 279.699 23.4138 277.475C22.3581 275.944 21.1744 270.419 20.0261 269.654C19.7686 269.482 20.4694 270.198 20.779 270.198C21.8891 270.198 22.9701 269.561 24.1248 269.528C27.3636 269.436 36.8361 271.317 33.8277 270.114C29.1972 268.262 30.0992 265.386 28.3071 261.289C27.6368 259.757 26.8518 258.818 26.0486 257.442C24.9367 255.535 36.8904 255.978 38.5955 255.978C40.6528 255.978 40.1587 255.892 38.6791 254.807C33.8029 251.231 27.178 248.838 21.5318 246.944C19.8822 246.391 9.77732 244.471 10.9924 243.18C11.9029 242.213 12.3849 240.843 13.7527 240.336C16.7439 239.228 17.9765 239.625 20.1098 237.492C23.2882 234.314 27.5276 232.451 30.1054 228.584C32.1151 225.569 38.3134 225.184 41.3976 224.736C42.2536 224.612 50.6933 222.079 49.5531 224.36C48.2196 227.027 38.0745 231.994 37.048 227.204C36.2966 223.697 37.2047 219.81 36.8807 216.246C36.6914 214.163 34.9927 213.777 34.0786 212.315C32.8774 210.393 30.9403 214.326 30.4819 215.326C28.2446 220.207 29.399 226.607 30.7328 231.553C31.5179 234.465 32.2543 237.894 32.4057 240.922C32.6085 244.978 39.3333 239.744 41.314 238.663C47.7465 235.155 49.7204 232.205 49.7204 225.113C49.7204 222.169 47.9151 218.505 45.2035 216.999C34.6593 211.141 32.37 193.231 37.5081 182.955C37.7179 182.536 37.6757 187.99 37.8427 189.145C38.587 194.293 41.9211 200.189 44.618 204.619C47.0137 208.555 47.9711 206.027 49.344 203.281C50.8305 200.308 51.474 197.488 51.937 194.247C52.2639 191.959 49.1311 190.82 48.0474 188.978C45.5579 184.746 42.1922 182.487 42.1922 177.267C42.1922 172.789 42.5286 166.797 44.2834 162.629C44.4234 162.297 45.9055 156.51 46.8346 157.903C49.5231 161.936 51.9703 166.41 53.4844 170.952C55.2376 176.212 64.0034 175.767 68.5406 176.18C73.7195 176.651 81.2081 179.282 73.2248 172.75C70.6971 170.682 69.8256 168.908 68.5406 166.017C67.7997 164.35 66.1388 161.973 64.7766 160.747C62.6836 158.864 64.0238 151.768 64.0238 149.246C64.0238 145.395 64.6057 141.714 64.7766 137.954C64.9158 134.892 66.0703 131.992 66.2822 128.92C66.3795 127.51 70.9504 135.673 71.9283 137.034C72.9752 138.49 81.5175 152.602 82.0494 150.208C82.2959 149.099 77.3516 146.914 76.0687 146.235C71.9122 144.034 69.3986 139.964 66.6586 136.616C62.5207 131.558 61.893 121.3 64.9439 115.537C65.9678 113.603 66.518 111.37 67.3696 109.18C69.4822 103.747 72.6358 100.494 76.0687 95.7964C79.3728 91.2751 82.6643 107.239 83.0113 109.012C83.9026 113.568 83.5969 105.77 83.5969 104.663C83.5969 101.941 83.1349 98.6879 84.0151 96.0474C85.0307 93.0005 86.3216 90.646 88.5738 88.3938C97.6471 79.3205 106.722 71.2112 113.375 59.9961C116.671 54.4402 112.239 65.8685 111.618 67.6078C109.212 74.344 102.934 73.5027 96.2273 73.7558C93.3166 73.8656 90.5708 74.8954 91.8778 71.4974C93.0033 68.5709 94.0128 66.0439 96.0182 63.5928C99.6058 59.208 100.358 57.0679 106.432 54.5591C111.545 52.4475 117.453 51.9845 122.408 49.7077C125.402 48.3322 129.241 48.1279 131.86 46.2364C136.009 43.2399 140.96 39.1376 144.156 35.0279C147.989 30.1 140.004 40.964 139.305 42.0123C130.428 55.3278 125.837 70.8546 116.971 84.4624C111.203 93.3171 104.058 101.4 97.022 109.263C95.1272 111.381 91.9036 114.116 90.5394 116.708C88.6189 120.357 87.8026 125.1 88.4901 129.087C88.7472 130.579 87.8744 140.994 91.5014 139.878C93.4928 139.265 96.8131 133.406 97.8166 131.764C101.553 125.65 103.296 118.478 106.098 111.94C112.097 97.9422 119.387 85.052 123.161 70.4936C123.715 68.3574 125.754 61.6487 125.754 66.8132C125.754 77.9599 121.99 88.8905 121.99 99.9787C121.99 104.463 122.342 109.989 121.07 114.282C119.92 118.165 121.168 122.281 119.397 126.076C117.896 129.293 118.112 132.375 116.01 135.528C113.725 138.955 114.042 142.895 112.789 146.653C112 149.021 110.096 151.038 109.945 153.596C109.889 154.547 107.968 159.813 107.269 160.413C104.711 162.605 103.027 165.467 100.577 160.789C99.0173 157.812 96.6534 154.998 96.3946 151.504C96.3019 150.252 95.9047 148.8 95.6418 147.573C95.5871 147.318 88.4769 156.369 87.8628 157.694C85.9613 161.797 83.6579 167.377 85.688 171.663C88.4838 177.565 93.9922 177.83 98.3185 173.503C103.248 168.574 114.316 167.419 115.173 159.702C115.342 158.179 114.698 154.769 116.135 153.763C118.377 152.193 123.169 163.504 128.013 161.082C133.644 158.266 136.987 154.118 140.058 148.744C141.119 146.888 135.565 144.113 133.868 142.889C131.532 141.204 125.754 137.501 125.754 134.023C125.754 126.697 130.082 119.758 132.53 113.027C134.347 108.028 141.604 100.645 138.719 94.8763C137.734 92.9056 135.59 92.721 134.955 90.0249C134.015 86.0275 135.501 81.3977 137.423 77.9381C140.093 73.1318 139.888 68.4981 138.51 63.6765C138.016 61.9467 136.294 62.0865 136.294 59.8706C136.294 57.5617 134.607 58.1422 133.115 56.6503C129.312 52.8473 140.769 41.5208 142.316 38.0391C143.377 35.653 144.999 33.4738 146.833 31.6402C149.967 28.5059 154.755 27.7096 157.874 24.6976C164.195 18.5951 173.138 9.80869 182.592 9.80869C187.606 9.80869 192.207 7.74161 196.519 5.45911C198.88 4.20873 200.419 3.7862 203.294 3.7862C208.094 3.7862 215.419 3.21772 220.19 4.58083C223.529 5.53471 210.213 17.7303 207.309 18.8424C195.778 23.2585 184.195 27.3679 172.889 32.393C168.783 34.2176 165.629 39.8609 162.224 42.7651C158.4 46.0262 146.229 54.9316 150.346 52.0497C159.247 45.8194 168.463 41.2482 178.535 37.0772C183.51 35.0167 189.153 33.5666 193.842 30.8874C197.885 28.5773 200.869 24.7636 205.469 22.9411C211.483 20.5581 218.491 18.7193 224.958 18.1314C225.901 18.0457 227.696 17.3683 226.464 15.9985C222.349 11.4267 231.543 9.6402 233.406 6.37921C236.255 1.39344 236.271 10.9935 236.376 12.7781C236.555 15.8253 235.525 18.8763 233.783 21.3936C231.71 24.3879 235.311 22.2556 237.254 21.8537C244.35 20.3854 251.795 20.3892 259.002 19.7625C260.278 19.6516 261.995 19.138 262.933 20.1807C266.312 23.9354 256.01 34.9088 252.268 36.4917C241.938 40.862 230.355 40.7227 219.563 43.6852C210.798 46.0913 205.106 51.2065 198.191 56.9012C194.179 60.2057 188.719 61.6895 185.059 65.3494C183.573 66.8354 189.807 60.0699 190.078 59.7452C192.989 56.2563 198.477 52.1938 200.241 47.7838C200.951 46.0082 200.834 44.3374 201.077 42.5141C201.539 39.0492 204.275 36.649 206.305 34.0659C208.193 31.6627 211.428 30.1909 214 28.629C214.329 28.4296 215.519 27.7923 215.171 28.7963C214.313 31.2768 211.22 32.7668 209.149 33.9405C195.544 41.6497 182.607 50.1564 168.372 56.483C167.063 57.0648 165.976 60.2658 164.9 61.4181C162.79 63.679 162.42 66.8257 160.969 69.4481C159.397 72.2896 154.512 80.3311 157.121 78.3981C163.128 73.949 168.731 63.4693 177.029 62.5473C177.753 62.4668 182.247 61.4402 182.55 62.0454C184.811 66.5672 180.387 75.9612 177.322 79.3182C172.343 84.7707 165.248 87.3041 159.045 90.945C151.656 95.2819 146.833 102.063 146.833 110.727C146.833 114.785 147.241 118.419 147.92 122.396C148.198 124.022 147.76 126.741 148.38 128.293C148.621 128.893 148.513 127.005 148.631 126.369C149.358 122.464 151.732 118.909 153.776 115.579C155.253 113.17 156.566 111.267 159.213 110.351C163.192 108.973 167.376 107.737 170.923 105.416C176.209 101.956 179.885 96.5067 185.059 92.7852C187.18 91.2599 189.376 89.7017 191.667 88.4356C191.761 88.3838 192.772 87.659 192.754 88.0174C192.601 91.2362 190.793 94.4734 189.283 97.2602C184.795 105.545 178.576 113.977 175.273 122.898C172.849 129.442 169.255 138.916 161.973 141.216C158.174 142.416 158.22 142.075 156.452 138.539C155.59 136.814 152.692 131.7 151.057 135.695C149.976 138.337 149.091 144.169 149.091 147.197C149.091 150.46 149.471 153.435 149.844 156.607C150.34 160.821 162.069 152.571 163.395 150.25C164.898 147.619 169.417 145.141 169.417 149.497C169.417 153.073 168.758 156.346 173.349 154.934C178.6 153.318 182.29 151.397 179.957 144.98C179.377 143.387 177.544 140.064 177.74 138.498C178.179 134.989 180.568 131.039 182.257 128C185.034 123.001 187.511 117.887 190.245 112.86C193.145 107.528 196.382 102.759 201.035 98.8077C202.717 97.3797 203.613 96.4539 204.799 94.709C206.26 92.5616 207.058 91.2137 207.058 88.4774C207.058 75.6715 221.97 69.8247 231.817 65.5167C236.119 63.6346 241.189 61.0122 244.74 57.9049C250.907 52.509 258.199 49.7088 264.857 45.1908C265.222 44.9434 269.598 41.7894 269.374 41.7613C267.027 41.468 263.478 43.5635 265.443 38.7919C267.353 34.1516 269.775 26.1753 273.138 22.4392C274.881 20.5024 273.949 18.4595 271.8 17.5041C270.619 16.9795 259.85 23.7168 259.378 23.1502C258.17 21.7001 258.249 15.597 258.249 13.5309C258.249 10.436 258.249 7.34114 258.249 4.24625C258.249 3.84389 256.696 4.66625 257.078 4.53901C260.683 3.33717 263.272 1.31668 267.283 1.52777C270.658 1.70541 267.321 7.22552 269.207 8.30306C274.16 11.1335 279.108 8.25631 283.719 6.08645C289.179 3.51706 294.265 2.75425 300.406 3.03339C303.769 3.18622 297.832 10.8827 297.395 11.3561C293.869 15.176 291.967 20.2948 288.361 24.1121C286.914 25.6444 285.981 27.2764 284.765 28.7963C283.733 30.0864 291.207 26.4702 291.875 26.2032C296.646 24.2948 302.018 23.7295 306.596 21.5609C310.519 19.7028 311.938 12.7969 314.543 9.39046C316.117 7.33203 317.795 5.30902 319.059 3.03339C320.548 0.35472 322 7.80524 322.196 9.4741C322.72 13.9291 321.514 16.7227 318.139 19.5534C311.376 25.2256 304.879 31.1909 298.064 36.8262C287.998 45.1507 274.661 50.0466 262.766 55.1446C258.359 57.0332 253.404 59.0439 249.633 62.1291C248.403 63.1362 246.173 67.4839 249.675 66.5623C253.34 65.5979 257.205 63.127 260.34 60.9998C261.267 60.3706 271.537 54.5332 269.541 57.8213C266.508 62.817 260.533 68.9469 255.363 71.7901C244.635 77.6905 232.011 79.8598 221.738 86.9718C217.689 89.7748 215.876 94.1242 212.328 97.5112C209.423 100.283 209.488 100.423 212.997 99.0586C216.461 97.7115 219.009 95.3125 222.03 93.1198C222.77 92.5828 226.848 88.7243 227.216 90.4431C227.76 92.9801 227.626 96.988 225.962 99.1423C223.008 102.965 219.159 106.243 216.05 109.974C211.529 115.399 205.385 120.965 207.643 128.586C207.946 129.607 208.067 133.07 209.818 132.935C213.06 132.686 217.215 127.293 220.023 125.574C222.197 124.243 223.693 123.287 225.585 121.559C228.046 119.312 231.378 117.9 233.699 115.579C235.494 113.784 237.173 111.295 238.843 109.347C247.029 99.7964 255.155 89.8678 264.439 81.4094C277.456 69.5494 290.636 57.3038 303.041 44.898C310.396 37.5432 288.521 59.7951 281.335 67.3151C278.4 70.3867 275.434 73.5693 272.636 76.767C271.273 78.3246 270.963 80.499 269.541 82.0785C260.688 91.9151 251.718 101.826 242.44 111.104C236.178 117.366 228.218 120.39 222.156 126.453C218.572 130.037 217.715 136.381 215.506 140.798C214.919 141.971 213.883 144.247 213.833 145.482C213.821 145.791 213.374 148.846 213.415 148.911C213.917 149.715 223.195 147.005 224.665 146.778C226.657 146.472 228.076 145.165 229.684 144.227C232.539 142.562 235.687 142.593 237.338 139.292C241.674 130.62 243.946 144.689 243.946 148.66C243.946 152.469 249.816 145.812 250.721 144.227C251.657 142.589 253.27 140.872 253.899 139.125C255.073 135.866 257.496 132.045 257.496 128.586C257.496 124.914 257.121 121.066 257.873 117.461C258.568 114.124 259.048 110.976 259.922 107.674C260.783 104.423 263.205 101.92 264.941 99.1004C268.466 93.3725 275.606 88.2555 280.415 83.5842C288.11 76.1094 296.702 69.8917 304.505 62.5473C304.852 62.2203 307.213 59.5213 306.722 61.5854C305.63 66.1716 304.385 70.7721 302.707 75.1778C300.319 81.4465 298.472 86.7797 294.384 92.2833C287.535 101.503 278.281 109.29 272.72 119.301C271.338 121.788 271.213 125.16 270.461 128C269.74 130.725 270.428 135.135 269.165 137.41C267.711 140.027 270.524 140.798 272.636 140.798C277.692 140.798 279.613 142.346 282.924 138.372C284.359 136.651 285.941 131.942 286.103 129.673C286.575 123.065 290.762 115.954 293.966 110.309C299.719 100.171 303.511 88.8513 309.106 78.6491C310.542 76.0291 311.115 72.6762 312.911 70.3263C314.985 67.6142 317.043 65.0369 318.85 62.1291C321.488 57.8857 325 54.1292 327.34 49.7077C329.971 44.7394 328.26 39.7914 328.26 34.275C328.26 30.0494 328.227 27.2119 331.857 23.9448C332.713 23.175 334.559 21.7813 335.789 21.8537C337.3 21.9426 336.541 29.3976 336.541 30.5946C336.541 34.0799 336.541 37.5651 336.541 41.0503C336.541 44.7734 336.173 48.3521 335.747 52.0497C335.103 57.6272 332.099 62.4547 331.439 68.0261C330.102 79.3124 327.642 89.1774 320.314 97.9712C308.499 112.149 294.223 122.504 286.27 139.292C284.701 142.604 281.909 145.137 280.666 148.493C279.664 151.198 275.344 154.661 272.552 155.059C270.718 155.321 268.136 155.614 266.195 155.059C263.839 154.386 262.807 151.971 259.587 152.09C255.161 152.254 252.176 157.399 257.162 158.823C259.336 159.445 262.404 158.865 264.69 158.865C268.748 158.865 266.67 158.099 268.956 160.956C272.949 165.948 280.733 161.536 285.392 160.371C291.547 158.832 293.282 153.534 296.642 148.493C299.671 143.951 300.715 138.261 305.3 134.733C310.515 130.721 314.954 122.738 318.056 117.126C321.415 111.047 325.235 104.353 329.515 98.8495C335.266 91.456 341.866 81.1789 344.237 71.9574C345.121 68.5171 347.297 64.8293 346.161 61.1671C345.381 58.6536 343.317 55.5715 343.317 53.0535C343.317 45.7839 344.566 36.8315 349.925 31.4729C350.2 31.1978 350.092 35.0833 350.092 35.8225C350.092 37.4315 350.012 39.0667 350.092 40.6739C350.3 44.8287 349.959 47.8814 349.381 52.217C348.694 57.369 354.935 48.3016 355.738 46.6964C356.636 44.9013 360.091 39.4196 362.137 38.5828C373.039 34.1229 367.834 52.7589 365.859 57.6958C362.518 66.049 357.959 74.4817 352.35 81.493C352.036 81.8863 345.134 89.4673 344.864 89.063C343.718 87.3435 343.768 82.1181 343.317 79.8619C342.621 76.3848 342.5 72.945 343.484 69.4481C344.21 66.8674 345.872 64.3515 347.834 62.5055C348.802 61.5935 347.847 67.9413 347.834 68.7789C347.796 71.0262 348.27 73.6506 347.457 75.7633C346.837 77.3746 347.4 79.0984 346.621 80.6566C345.081 83.7363 342.931 86.893 340.933 89.6903C336.857 95.3965 332.913 100.904 329.013 106.754C324.113 114.104 322.377 123.685 318.097 131.388C316.731 133.847 315.674 138.85 315.421 141.634C315.068 145.517 313.417 149.011 313.204 152.843C313.118 154.395 311.276 156.382 310.36 157.527C308.034 160.435 312.6 158.112 314.333 158.112C316.121 158.112 318.733 151.7 319.603 150.25C322.39 145.605 324.983 140.631 327.508 135.863C330.063 131.036 329.829 138.928 330.352 141.216C331.184 144.86 327.958 147.508 326.462 150.501C323.862 155.701 321.669 160.943 318.85 166.017C316.123 170.926 309.964 170.133 314.877 176.18C319.059 181.327 325.12 169.221 326.086 166.686C330.688 154.605 331.99 142.311 334.868 129.84C336.431 123.067 337.146 116.177 340.013 109.807C342.852 103.497 345.737 97.9072 350.803 93.0361C355.58 88.4424 360.594 84.6138 365.148 79.8201C371.387 73.2528 371.124 65.1261 374.558 57.5704C376.487 53.3267 373.046 46.9439 379.786 45.3581C385.224 44.0786 386.52 51.9055 388.067 55.5629C389.126 58.0668 390.625 60.4533 389.824 63.2583C388.541 67.7481 396.432 56.5418 398.857 52.5516C400.109 50.4918 399.628 49.0789 400.363 52.3843C401.182 56.0702 400.519 60.111 399.736 63.6347C398.472 69.3201 390.629 72.8728 385.641 73.0448C381.651 73.1824 376.931 79.7455 374.349 81.9113C370.827 84.8649 364.952 88.9767 363.601 93.7053C361.901 99.6548 355.74 106.299 351.598 110.685C346.7 115.871 341.5 122.878 339.511 129.84C339.346 130.418 338.746 131.56 338.423 132.14C335.62 137.186 346.541 123.902 350.134 119.385C353.473 115.186 353.8 112.081 358.791 109.514C363.68 107 361.529 120.968 361.217 123.985C360.663 129.34 357.866 132.27 354.232 135.905C350.709 139.428 342.274 148.512 343.275 154.014C343.489 155.194 343.317 156.534 343.317 157.736C343.317 160.574 345.69 153.89 345.993 153.303C348.728 148.015 352.34 142.835 356.449 138.539C365.702 128.866 371.171 116.066 371.171 102.739C371.171 99.2038 371.459 95.0526 373.053 91.8651C376.093 85.7838 381.174 84.5396 386.06 80.4056C387.913 78.8371 390.268 77.0542 392.249 75.8888C395.048 74.2426 391.863 85.8165 391.497 87.4319C389.194 97.5756 385.425 107.384 382.923 117.502C379.467 131.477 373.714 142.968 364.228 153.763C361.272 157.126 358.157 161.884 355.947 165.641C354.136 168.72 350.122 170.987 347.248 172.834C345.511 173.95 340.692 173.627 339.553 175.051C339.081 175.64 336.053 176.849 335.412 176.849C331.963 176.849 340.224 171.864 342.187 169.028C343.053 167.778 343.489 165.426 344.822 164.72C348.772 162.629 346.328 168.251 346.328 171.287C346.328 173.358 345.905 178.285 347.248 179.777C351.743 184.771 359.054 169.79 360.171 167.899C362.632 163.735 364.712 158.336 365.19 153.554C365.477 150.683 367.188 147.892 368.201 145.231C370.837 138.313 373.879 131.431 378.113 125.323C383.145 118.065 390.138 112.428 395.679 105.583C397.661 103.135 400.407 100.2 401.283 97.1348C402.154 94.0872 404.294 91.0292 404.294 87.7246C404.294 85.5132 403.412 83.6532 403.542 81.3257C403.636 79.629 405.298 78.4823 406.385 77.3944C409.684 74.0959 410.311 95.0718 410.275 96.6329C410.09 104.672 408.167 110.944 405.34 118.339C403.653 122.752 401.23 126.888 399.025 131.053C396.424 135.965 394.815 141.425 392.082 146.235C391.497 147.264 388.288 154.735 391.497 151.337C394.236 148.437 396.948 145.429 399.652 142.387C403.347 138.23 405.551 133.408 406.72 128C407.599 123.933 409.995 114.935 406.929 111.187C402.657 105.966 391.014 118.673 389.071 123.232C387.795 126.225 385.837 129.65 384.889 132.684C383.863 135.967 385.051 139.973 384.554 143.391C383.985 147.299 382.607 150.049 381.71 153.637C380.36 159.036 376.201 166.881 372.844 171.078C370.456 174.062 372.491 179.662 370.418 183.29C368.14 187.276 361.968 186.912 360.046 191.236C358.33 195.096 365.327 194.247 367.156 194.247C371.905 194.247 375.098 193.708 378.824 191.613C383.105 189.204 387.195 186.438 391.873 184.879C394.613 183.966 390.746 191.757 394.926 189.731C398.616 187.942 401.794 174.674 395.846 174.674C391.651 174.674 387.674 175.114 383.717 176.598C382.575 177.027 380.01 178.842 381.208 176.18C385.151 167.418 390.371 159.113 397.895 153.261C401.475 150.477 406.119 148.998 408.769 145.022C411.463 140.982 413.712 135.995 415.419 131.179C416.729 127.484 432.719 93.3726 427.297 91.8233C425.146 91.2087 422.52 89.0209 421.609 86.9718C420.784 85.1151 419.925 81.7644 422.362 84.337C425.346 87.4866 426.637 89.4272 427.799 93.2034C428.994 97.0873 432.15 101.095 432.859 104.997C434.371 113.311 435.604 121.927 429.137 128.753C427.014 130.994 416.51 148.326 419.727 148.326C425.649 148.326 431.149 142.234 434.365 137.41C436.763 133.814 435.666 145.235 435.118 147.155C434.121 150.644 429.625 153.789 427.213 156.272C424.54 159.024 420.827 161.6 418.598 164.72C416.554 167.582 413.784 169.005 411.153 171.328C409.375 172.899 405.409 175.838 405.089 178.397C404.237 185.213 420.759 178.114 423.115 174.842C426.388 170.296 427.761 176.638 428.97 179.191C430.412 182.236 427.293 183.548 425.038 184.084C422.062 184.793 420.205 186.91 416.758 185.925C413.826 185.087 418.356 177.205 419.183 176.347C422.407 173.004 425.463 169.417 428.384 165.808C430.79 162.836 434.535 160.783 436.247 157.36C437.406 155.042 436.451 152.444 435.954 150.208C434.796 144.995 441.324 149.491 442.186 150.417C445.055 153.502 447.395 161.207 444.528 164.595C439.933 170.026 439.567 171.939 445.281 176.682C448.796 179.6 448.71 181.059 448.71 185.214C448.71 186.764 449.574 191.832 448.208 192.825C439.851 198.903 430.906 200.38 420.856 200.27C417.071 200.228 408.445 201.074 405.214 197.844C402.201 194.831 408.094 191.953 409.94 190.107C414.1 185.947 420.106 196.205 417.259 199.684C415.113 202.308 412.559 202.916 409.397 201.943C407.842 201.464 401.981 200.049 400.907 200.646C399.426 201.469 395.31 203.608 398.69 205.54C399.674 206.102 400.169 207.279 400.865 208.174C402.026 209.667 402.695 208.947 404.462 209.471C411.034 211.418 411.341 216.072 409.188 222.101C408.628 223.668 416.594 219.52 418.054 218.756C419.645 217.922 421.084 217.356 422.362 216.079C426.62 211.821 434.6 209.797 440.304 208.927C444.931 208.221 451.446 209.496 453.311 204.369C454.409 201.349 455.303 198.6 456.071 195.335C456.726 192.55 457.237 189.314 458.329 186.719C458.882 185.408 458.466 178.711 457.075 182.537C456.053 185.346 458.115 186.597 458.455 188.978C459.079 193.347 460.755 196.918 460.755 201.441C460.755 211.1 450.38 214.311 444.11 219.885C441.385 222.307 437.66 223.696 434.49 225.447C433.005 226.268 429.214 229.168 427.339 228.751C426.655 228.599 426.126 226.143 426.126 225.489C426.126 222.891 427.126 221.944 429.388 220.345C430.896 219.279 437.568 216.755 439.091 218.672C441.009 221.087 442.688 223.925 442.688 226.995C442.688 230.999 434.93 234.821 431.814 235.652C427.721 236.743 426.6 239.897 424.453 243.347C422.988 245.701 417.112 249.566 422.069 249.997C426.617 250.393 432.332 251.277 435.912 247.697C438.701 244.908 440.012 241.072 442.102 237.743C444.474 233.966 449.618 230.748 453.813 229.63C457.14 228.742 460.832 229.016 464.101 228.082C465.276 227.746 462.086 230.815 461.466 231.512C457.222 236.287 454.733 239.762 454.733 246.191C454.733 250.95 447.186 251.952 444.193 254.472C442.756 255.683 445.699 250.039 446.494 249.244C447.87 247.868 452.96 241.693 455.109 242.887C458.234 244.623 465.491 249.632 460.588 252.967C455.165 256.654 447.134 255.569 441.182 258.404C438.337 259.758 434.902 264.085 433.654 266.894C432.854 268.693 423.439 271.748 428.719 270.239C431.868 269.34 435.287 268.65 438.505 268.065C439.861 267.818 439.847 269.401 441.182 269.528C443.78 269.776 447.066 269.839 448.71 270.867C453.201 273.674 446.236 278.567 443.775 279.65C440.3 281.179 440.145 282.141 437.836 284.585C434.837 287.76 442.196 282.949 443.273 282.494C446.829 280.988 449.458 279.664 452.432 277.433C454.004 276.254 457.97 272.698 457.618 274.631C456.727 279.536 452.791 285.933 448.877 289.102C444.175 292.908 440.089 297.419 435.16 300.979C434.702 301.31 430.387 303.405 432.734 303.405C436.486 303.405 440.303 300.285 443.691 298.93C447.936 297.232 449.831 293.116 453.603 290.984C454.379 290.545 461.427 283.895 461.508 284.585C462.042 289.12 464.252 292.886 461.675 297.215C458.55 302.466 452.209 305.628 448.376 310.557C446.133 313.441 453.507 310.373 453.98 310.222C457.316 309.154 460.882 308.155 464.185 307.211C466.253 306.62 463.106 311.249 462.637 311.644C461.033 312.995 458.989 314.259 456.991 314.864C454.966 315.478 453.396 317.011 451.303 317.708C448.519 318.637 445.609 318.594 442.688 318.461C440.983 318.384 445.617 316.956 446.452 316.956C448.299 316.956 452.064 317.555 452.516 319.59C453.099 322.215 455.588 321.927 457.326 321.431C457.878 321.273 461.45 318.759 461.341 319.005C459.961 322.11 456.439 324.529 453.98 326.742C451.731 328.766 448.793 330.873 445.699 331.217C444.67 331.331 438.664 330.19 438.338 330.841C436.637 334.243 443.652 335.065 445.113 334.856C449.783 334.189 454.649 333.656 458.915 331.635C465.853 328.349 460.74 332.415 458.873 335.734C457.09 338.904 452.848 343.91 449.63 345.395C446.576 346.805 444.849 350.072 441.349 351.418C438.982 352.328 442.726 350.606 443.273 350.414C448.097 348.717 454.279 350.266 458.831 348.197C460.32 347.521 462.386 347.695 463.976 347.863C466.686 348.148 460.332 351.462 459.835 351.752C457.759 352.963 448.74 355.432 447.999 358.026C446.675 362.661 442.445 363.343 450.843 361.831C459.907 360.2 447.613 367.063 445.532 369.067C444.113 370.433 439.549 372.664 440.429 372.664C442.784 372.664 444.996 373.852 447.623 373.375C453.258 372.35 449.07 376.626 446.452 378.31C444.078 379.835 441.962 378.859 444.361 380.777C445.065 381.341 450.132 380.364 450.132 381.363C450.132 383.8 444.443 385.461 442.688 385.461" stroke="#A400F1" stroke-width="3" stroke-linecap="round"/>
<path d="M116.921 374.389C116.176 378.204 115.501 382.967 119.092 385.84C120.04 386.599 121.172 388.884 122.054 389.986C123.236 391.464 125.717 391.801 126.792 393.145C127.621 394.181 130.31 394.132 131.53 394.132C132.485 394.132 133.178 394.293 134.075 394.549C135.387 394.924 136.601 394.905 138.155 394.922C141.628 394.959 143.246 395.947 145.043 392.553C145.638 391.428 146.855 389.864 146.929 388.604C147.023 387.011 148.509 385.661 148.509 384.063C148.509 381.957 148.509 379.851 148.509 377.746C148.509 375.353 148.354 372.168 147.697 369.87C147.088 367.738 144.655 368.861 143.003 368.861C141.087 368.861 139.171 368.861 137.256 368.861C136.525 368.861 132.775 369.279 132.32 369.848C131.589 370.761 128.678 369.762 127.976 370.638C127.726 370.951 124.305 371.625 123.831 371.625C121.512 371.625 117.315 372.955 117.315 375.574C117.315 376.957 116.92 379.127 117.798 380.224C118.758 381.424 120.322 382.239 121.352 383.383C122.296 384.433 122.895 385.51 123.721 386.542C125.226 388.424 122.568 387.372 121.966 386.235C121.331 385.036 121.791 386.839 122.076 387.266C122.782 388.325 123.285 388.767 124.423 389.306C126.484 390.282 128.72 390.051 130.74 391.061C133.589 392.485 136.775 392.553 140.02 392.553C141.353 392.553 142.54 391.426 143.376 390.381C143.895 389.732 144.126 389.383 144.473 388.604C144.752 387.975 144.199 386.682 144.758 386.235C145.499 385.642 145.745 382.658 145.745 381.694C145.745 380.027 145.795 378.413 145.372 376.934C144.933 375.398 143.724 374.079 143.398 372.612C143.226 371.842 143.855 370.971 144.473 372.02C145.003 372.922 145.35 373.741 145.35 374.784C145.35 376.747 145.104 378.842 143.858 380.4C142.614 381.955 142.824 384.634 141.402 386.235C140.476 387.276 139.606 388.503 138.725 389.481C137.452 390.896 133.797 391.918 132.013 390.491C130.625 389.381 129.154 388.202 127.779 386.827C127.014 386.062 126.23 385.532 125.52 384.743C124.266 383.351 124.77 381.42 124.225 379.786C123.957 378.98 123.682 377.993 123.633 377.153C123.571 376.091 122.054 377.835 122.054 378.535C122.054 380.371 122.03 382.61 124.225 383.098C125.842 383.457 127.056 385.594 128.854 386.147C131.232 386.879 132.911 386.474 135.303 385.928C137.85 385.346 139.684 380.288 139.822 377.943C139.851 377.458 140.055 375.862 140.414 375.574C141.195 374.949 139.818 374.174 140.305 373.687C141.493 372.499 142.586 376.529 142.586 377.153C142.586 381.159 141.198 383.499 138.55 386.147C136.942 387.755 134.679 387.419 132.517 387.419C131.924 387.419 130.936 386.961 130.346 386.717C129.885 386.528 130.3 388.015 131.728 387.222C135.761 384.981 139.273 383.226 137.826 378.162C137.471 376.918 136.869 374.827 136.268 373.775C135.325 372.124 133.504 374.249 133.504 375.376C133.504 376.247 132.859 378.933 132.122 379.522C130.85 380.54 129.879 384.464 131.925 380.882C132.646 379.621 133.938 377.762 132.627 376.451C131.218 375.042 129.71 375.969 127.976 375.969C126.343 375.969 124.584 376.364 122.843 376.364C121.131 376.364 118.585 376.912 121.571 374.96C123.983 373.383 127.194 373.753 129.951 373.6C131.008 373.541 131.943 372.617 132.934 372.437C133.855 372.269 134.934 372.415 135.874 372.415C138.48 372.415 144.56 371.053 144.56 375.179" stroke="#4C857B" stroke-width="3" stroke-linecap="round"/>
<path d="M130.168 377.201C129.274 377.9 126.677 380.305 129.112 381.308C129.721 381.559 131.095 379.316 130.432 378.785C128.027 376.861 128.584 381.653 128.584 382.481" stroke="#F9F9F9" stroke-width="3" stroke-linecap="round"/>
<path d="M139.404 377.24C139.404 380.668 139.378 380.974 137.231 383.121C136.656 383.695 133.415 385.589 134.802 383.856C135.569 382.897 136.172 381.506 136.496 380.372C136.778 379.385 135.952 379.152 135.952 378.391C135.952 377.314 137.405 377.845 137.678 378.391" stroke="#A400F1" stroke-width="3" stroke-linecap="round"/>
<path d="M366.227 407C370.352 407 373.104 404.811 377 403.206C375.259 402.264 375.394 397.535 374.606 395.617C373.043 391.812 372.781 389.214 369.15 386.823C364.188 383.556 359.507 380.791 354.063 378.391C352.508 377.706 351.489 376.494 349.832 375.982C347.207 375.171 344.437 375.449 341.843 374.747C332.786 372.298 324.762 376.357 316.763 379.897C314.567 380.869 312.114 382.519 309.748 382.607C307.679 382.684 305.456 383.785 303.624 384.776C302.53 385.368 296.208 391.607 297.083 392.364C297.665 392.868 297.352 393.855 298.113 394.533C298.758 395.108 299.45 395.605 300.089 396.159L302.594 398.327C304.501 399.977 307.451 400.011 309.609 401.308C312.426 403.001 316.954 403.748 320.131 403.748C324.548 403.748 328.488 407 333.019 407H357.209H366.227Z" fill="url(#paint2_radial)"/>
<path d="M290.729 389.678C293.038 389.678 298.054 388.978 299.179 386.447C299.547 385.619 301.957 383.278 302.934 382.72C306.766 380.53 311.001 379.134 314.836 377.003C317.312 375.628 321.847 372.779 324.777 372.779C327.125 372.779 329.182 372.281 331.487 372.281C333.959 372.281 333.669 371.809 339 372.779C344.331 373.748 345.251 373.254 351.5 376C357.749 378.746 356.858 378.195 359.929 379.848C363 381.5 363.461 381.894 366.5 385.5C369.539 389.106 368.46 387.404 370.73 389.702C373 392 373.571 393.63 374.707 394.298C377.302 395.824 377.883 398.757 380.671 400.152" stroke="#A400F1" stroke-width="3" stroke-linecap="round"/>
<path d="M354.86 379.731C355.474 381.213 357.753 384.086 357.842 385.696C357.913 386.975 357.842 388.281 357.842 389.562C357.842 392.115 355.425 393.644 354.252 395.637C352.838 398.042 350.924 399.799 348.895 401.602C348.101 402.308 344.015 403.68 343.428 403.093" stroke="#A400F1" stroke-width="3" stroke-linecap="round"/>
<path d="M315.968 379C314.763 381.058 313.979 388.566 314.974 390.783C315.968 393 315.5 392.5 316.5 394C317.5 395.5 322.434 399.86 320.5 398" stroke="#A400F1" stroke-width="3" stroke-linecap="round"/>
<path d="M313.784 420.834C306.24 419.362 300.752 415.79 293.909 412.368C289.774 410.301 293.437 416.348 294.903 417.521C297.036 419.228 299.713 421.922 301.197 424.146" stroke="#A400F1" stroke-width="3" stroke-linecap="round"/>
<path d="M351.421 383.184C354.252 387.219 353.024 392.352 349.742 395.753C348.907 396.619 348.789 397.611 347.69 398.181C346.553 398.77 345.488 399.515 344.332 400.115C342.175 401.233 339.971 400.974 337.616 400.974C334.054 400.974 336.596 398.654 338.735 398.654C340.35 398.654 342.96 397.434 343.959 396.14C344.94 394.869 347.377 393.766 347.711 391.864C348.093 389.682 348.063 387.556 348.063 385.311C348.063 384.022 347.262 381.282 346.653 380.09C346.444 379.681 346.415 377.471 347.317 377.856C348.173 378.221 348.876 379.103 349.472 379.79C350.558 381.039 351.048 384.489 351.048 386.085C351.048 388.142 349.776 392.126 347.897 393.239C343.725 395.711 341.389 399.041 336.124 399.041C334.057 399.041 332.15 398.497 330.154 398.267C328.577 398.085 325.653 395.348 329.035 395.173C331.187 395.062 333.032 394.013 335.191 394.013C338.632 394.013 336.223 398.946 334.424 397.88C330.969 395.834 337.119 393.687 338.652 393.626C341.565 393.51 341.72 389.51 341.72 387.438C341.72 384.985 342.352 381.512 341.699 379.145C341.557 378.629 341.04 377.04 342.28 377.04C343.071 377.04 344.197 380.905 344.498 381.616C345.217 383.32 345.006 387.651 344.332 389.222C343.684 390.733 342.879 392.453 341.927 393.798C340.796 395.397 340.214 395.365 338.569 396.14C337.572 396.61 336.361 395.99 335.377 396.419C333.995 397.023 332.008 396.793 330.527 396.72C328.739 396.632 326.572 395.814 324.806 395.474C323.548 395.231 323.303 394.467 322.319 393.927C318.277 391.709 326.234 391.306 327.542 391.306C329.501 391.306 331.795 392.316 333.678 391.392C336.413 390.049 336.713 388.196 337.222 385.29C337.44 384.046 336.999 382.677 337.264 381.444C337.626 379.755 338.362 382.458 338.362 382.991C338.362 384.535 338.628 386.107 337.803 387.438C336.837 388.995 336.066 388.073 334.818 388.792C332.055 390.383 329.552 390.919 326.444 390.919C324.875 390.919 323.451 390.532 321.946 390.532C320.284 390.532 322.44 388.985 323.355 388.985C325.487 388.985 331.273 388.969 331.273 386.665C331.273 384.28 330.495 383.557 329.2 381.831C328.484 380.876 324.052 378.62 325.863 377.577C327.959 376.37 329.929 378.019 330.817 380.09C332.209 383.336 331.658 385.473 330.154 388.427C329.522 389.668 327.993 391.49 327.915 392.853C327.832 394.318 332.714 393.668 333.802 393.626C335.185 393.573 337.616 390.316 337.616 388.985C337.616 386.333 335.804 384.42 334.465 382.239C333.827 381.199 332.075 378.051 332.413 376.825C332.473 376.609 334.69 376.204 335.004 376.223C335.802 376.272 336.708 378.223 337.077 378.844C337.938 380.295 338.735 382.965 338.735 384.731C338.735 385.874 338.649 386.689 338.383 387.653C338.129 388.574 338.532 389.675 338.176 390.339C337.938 390.782 338.156 391.546 337.761 391.864C336.926 392.538 334.861 390.727 334.279 390.124C333.165 388.97 332.327 386.845 331.999 385.311C331.481 382.897 331.702 380.071 329.594 378.372C328.566 377.543 328.246 377.653 326.983 377.362C326.076 377.153 325.435 376.501 326.236 375.836C328.06 374.324 330.791 375.45 332.849 375.45C336.222 375.45 340.177 374.26 343.213 375.75C345.605 376.925 349.483 376.939 350.861 379.51C352.028 381.687 352.372 384.77 352.146 387.224C351.528 393.955 344.934 398.528 338.569 397.408C333.616 396.536 329.759 395.976 325.304 393.712C323.795 392.945 322.421 392.087 321.117 391.005C320.479 390.476 319.323 390.631 318.878 389.759C316.535 385.171 319.339 382.501 321.946 379.124C322.299 378.666 322.844 377.451 322.671 376.825C322.506 376.225 321.291 378.136 321.199 378.35C320.793 379.298 320.209 380.125 319.707 381.036C319.058 382.213 318.588 378.532 318.588 379.919C318.588 382.056 318.625 384.968 320.08 386.665C321.722 388.58 321.481 391.533 324.557 391.693C329.575 391.953 334.524 393.343 339.399 394.786C342.256 395.633 342.61 393.552 344.705 392.466" stroke="#4C857B" stroke-width="3" stroke-linecap="round"/>
<path d="M326.041 381.302C325.611 382.405 325.404 383.918 324.693 384.807C324.491 385.059 324.655 386.586 324.558 386.101C324.248 384.55 323.084 383.326 324.693 381.895C326.361 380.412 324.072 386.585 325.07 388.581" stroke="#F9F9F9" stroke-width="3" stroke-linecap="round"/>
<path d="M332.984 391.661C337.988 391.661 340.44 388.944 340.44 384.205C340.44 382.607 332.986 383.568 337.457 381.333C338.426 380.849 340.359 381.222 341.434 381.222C342.715 381.222 343.249 382.575 342.041 381.609C341.717 381.35 340.937 380.865 340.937 381.72C340.937 382.394 341.908 382.455 342.317 382.824C343.431 383.826 342.966 385.199 341.434 385.199" stroke="#A400F1" stroke-width="3" stroke-linecap="round"/>
<path fill-rule="evenodd" clip-rule="evenodd" d="M14.6691 343.438C14.6691 350.037 12.0539 361.35 13.4915 367.819C14.0455 370.312 20.3595 371.613 22.2542 372.695C25.8192 374.733 25.3149 374.27 27.4988 377C28.7117 378.516 28.9829 381.988 29.7409 385.994C30.4988 390 31.097 391.584 31.9988 395C32.9006 398.417 33.4988 406.5 35.0603 412.591C36.6219 418.683 38.5861 425.614 39.5425 428.057C40.4988 430.5 41.9056 432.398 43.2022 435.199C44.4988 438 44.9988 440 46.5858 442.735C48.1728 445.47 51.0505 451.142 53.9988 453.5C55.8657 454.994 58.0409 457.881 59.9988 459C61.6585 459.949 61.5594 460.325 63.4988 462C65.4382 463.676 63.0613 461.919 66.7801 464.21C70.4988 466.5 76.2124 468.324 81.6056 470.662C86.9988 473 93.7426 474.47 97.1207 475.735C100.499 477 100.499 477.276 104.499 477.5L109.499 477.78C111.499 477.892 112.504 478.198 117.069 478.198C121.633 478.198 138.499 478.198 150.759 472.879C163.018 467.559 162.938 468.237 167.85 463.816C172.009 460.072 175.631 456.974 180.065 452.487C184.499 448 189.499 443.203 196.999 431C204.499 418.797 202.309 423.302 207.999 410.5C210.443 405 211.489 398.145 211.489 391.314C211.489 384.91 210.603 379.484 210.603 373.139C210.603 368.706 214.757 367.779 219.499 367.924V352.659C213.999 351.576 210.603 351 207.999 352C205.395 353 199.499 355 195.679 353.026C191.858 351.052 191.999 350.974 188.832 348.364C185.665 345.753 184.037 345.256 182.232 344.128C179.939 342.695 178.358 340.748 175.533 339.941C165.617 337.108 155.45 333.686 144.553 333.686C139.173 333.686 133.617 331.913 128.151 331.913C122.088 331.913 115.824 331.026 109.533 331.026C102.982 331.026 96.3754 330.765 89.8311 331.026C85.7103 331.191 81.2682 331.117 76.4988 332C71.7294 332.883 67.4129 332.903 63.9988 334C60.5847 335.098 56.4988 335.5 52.171 336.119C47.8432 336.738 43.0092 338.014 39.5425 338.119C36.0757 338.224 24.2671 343.438 14.6691 343.438ZM57.5684 354.986C60.5231 351.293 67.3234 348.983 69.4111 348.188C71.4988 347.393 75.1396 346.159 77.0626 345.556C80.2501 344.556 84.4816 344.24 87.8575 344.24C93.0969 344.24 98.3356 343.363 103.624 343.363C108.303 343.363 112.643 343.802 117.416 343.802C123.474 343.802 129.267 345.556 135.302 345.556C139.364 345.556 143.17 346.433 147.242 346.433C150.096 346.433 153.244 347.582 155.819 348.87C158.069 349.995 160.4 350.882 162.594 352.135C166.643 354.449 172.361 355.569 175.655 358.863C179.674 362.882 183.239 366.771 186.999 371C189.452 373.76 190.958 376.984 192.688 381.742C194.418 386.5 194.418 388.5 194.999 391C195.58 393.5 196.081 395.022 195.734 401.261C195.387 407.5 189.328 415.866 188.664 417.683C187.999 419.5 186.779 422.572 185.934 424.262C184.957 426.217 183.843 428.202 182.742 430.184C181.78 431.915 180.887 433.957 179.499 435.5C178.11 437.044 175.944 439.911 174.066 441.684C170.733 444.832 168.407 447.448 165.101 450.58C163.874 451.741 165.999 449.719 161.081 453.674C156.163 457.63 155.977 457.989 149.499 461C143.021 464.012 145.999 463 143.538 463.352C141.077 463.704 134.906 464.229 130.599 464.229H104.999C100.73 464.229 96.9988 464 92.4988 462.913C87.9988 461.826 81.2115 457.332 77.789 455.431C74.4577 453.58 71.995 449.851 68.7973 447.852C65.7517 445.949 62.9988 443 60.9988 440C58.9988 437 59.1548 438.356 55.7362 431.428C52.3175 424.5 50.299 417.867 47.2074 410.911C45.3714 406.779 46.158 404.675 45.2102 400.41C44.7788 398.468 44.9988 394.478 44.9988 392.5C44.9988 390.795 45.0153 388.373 45.2102 386.5C45.4051 384.628 45.4988 383 45.9988 380.5C46.4988 378 46.5176 376.276 46.9988 374.5C47.4801 372.724 48.2204 370.453 49.0153 369.022C50.8077 365.796 51.0132 361.956 53.7182 359.251C55.0206 357.948 56.4219 356.42 57.5684 354.986Z" fill="#131313"/>
<path fill-rule="evenodd" clip-rule="evenodd" d="M245.952 369.346C249.406 369.192 251.272 370.007 251.272 373.139C251.272 378.579 250.385 384.562 250.385 390.427C250.385 393.584 250.699 396.053 251.321 398.849C252.003 401.918 251.864 402.544 252.931 407.272C253.999 412 255.063 414.095 256.281 418.797C257.499 423.5 257.384 425.545 258.808 428.106C261.557 433.056 265.496 438.616 268.146 443.622C270.449 447.972 272.533 450.68 276.766 455.59C280.999 460.5 283.316 461.236 287.499 465C292.247 469.274 301.017 473.402 305.008 474.701C308.999 476 311.876 477.333 315.548 478.149C318.692 478.847 317.11 478.063 325.055 479.282C332.999 480.5 342.245 479.971 350.076 479.971H360.321C363.999 479.971 363.999 480.5 376.499 476C388.999 471.5 395.099 465.092 404.206 457.807C408.633 454.265 410.999 449 415.175 442.622C419.351 436.243 420.499 433 422.381 427.22C424.263 421.44 426.615 413.74 428.499 409.5C430.795 404.334 431.778 395.495 432.999 390C433.991 385.537 434.62 383.243 440.309 380.872C445.999 378.5 447.432 374.684 447.432 367.819C447.432 361.689 447.908 356.804 447.545 350.644C447.329 346.966 432.633 346.325 429.917 346.325C424.848 346.325 415.499 343.5 410.999 342.5C406.499 341.5 402.603 341.438 398.999 341C395.395 340.562 396.499 340.5 385.999 338.5C375.499 336.5 378.999 337.808 371.999 337C364.999 336.193 358.498 335.119 350.352 335.119C343.04 335.119 331.999 335.5 326.999 335.5C321.999 335.5 318.999 336.5 314.662 337.232C310.325 337.964 307.499 338 302.693 338.892C297.887 339.784 286.151 344.036 284.075 344.768C281.999 345.5 279.096 346.534 276.999 347.5C274.902 348.467 271.499 349.667 268.314 350.728C265.128 351.789 263.999 352.5 261.024 353.191C258.049 353.881 258.994 355.5 257.499 355.5C255.252 355.5 253.312 354.954 251.272 354.5C245.585 353.237 238.438 353.263 232.999 353.583C227.121 353.929 223.999 353.583 218.499 352.5V367.924C222.97 368.06 227.963 369.149 230.486 369.149C233.217 369.149 236.136 369.061 238.999 369.346C241.405 369.586 242.499 369.5 245.952 369.346ZM401.115 359.986C398.161 356.293 393.36 353.983 391.273 353.188C389.185 352.393 385.544 351.159 383.621 350.556C380.434 349.556 377.202 348.24 373.826 348.24C368.587 348.24 363.348 347.363 358.06 347.363C353.381 347.363 349.041 347.802 344.268 347.802C338.21 347.802 331.999 348 326.382 348.556C320.765 349.112 318.499 350 314.442 350.433C310.385 350.866 308.499 351 305.864 351.87C303.23 352.74 301.284 353.882 299.09 355.135C295.041 357.449 291.485 358.225 286.029 361.863C280.573 365.5 277.414 368.002 274.749 371C272.085 373.998 270.729 375.242 268.999 380C267.269 384.758 266.401 387 265.95 392.5C265.499 398 266.409 394.522 266.95 404.261C267.491 414 271.499 416.5 273.02 421.683C274.542 426.866 274.904 426.572 275.749 428.262C276.727 430.217 277.841 432.202 278.942 434.184C279.904 435.915 280.945 439.241 282.573 440.544C284.476 442.066 286.74 445.911 288.618 447.684C291.951 450.832 294.777 453.343 295.999 454.5C297.22 455.658 295.917 455.174 300.999 458.5C306.081 461.826 308.003 462.976 312.663 464.012C314.468 464.413 314.293 464.704 318.146 465.352C321.999 466 326.777 467.229 331.085 467.229H356.685C360.953 467.229 365.871 466.326 369.185 465.913C372.499 465.5 379.472 462.332 382.895 460.431C386.226 458.58 389.274 455.204 391.886 452.852C394.499 450.5 395.999 448 398.466 445.054C400.933 442.109 402.755 439.169 404.948 436.428C409.768 430.403 411.657 423.302 413.476 415.911C414.685 411 414.526 407.675 415.474 403.41C415.905 401.468 415.685 398.478 415.685 396.5C415.685 394.795 415.669 392.373 415.474 390.5C415.279 388.628 415.185 387 414.685 384.5C414.185 382 414.166 380.276 413.685 378.5C413.204 376.724 412.463 374.453 411.669 373.022C409.876 369.796 408.671 366.956 405.966 364.251C404.663 362.948 402.262 361.42 401.115 359.986Z" fill="#131313"/>
<path d="M27.4448 355.188C21.143 363.853 32.2786 356.519 27.7526 355.226C23.8229 354.104 24.8263 363.04 27.9835 359.882C31.0625 356.803 25.3669 353.841 25.3669 358.305C25.3669 363.58 31.8524 356.573 27.4448 356.573" stroke="white" stroke-width="3" stroke-linecap="round"/>
<path d="M431.257 363.5C429.8 364.56 425.858 366.401 427.255 369.041C428.023 370.49 430.911 369.87 431.796 368.887C434.479 365.906 428.459 362.881 429.911 367.963C430.159 368.831 431.086 368.135 431.411 367.809C432.179 367.041 431.503 366.856 431.296 365.924C430.733 363.392 429.872 366.046 429.872 367.309C429.872 369.388 431.721 367.722 431.219 365.962C430.655 363.989 429.179 367.742 429.179 368.348" stroke="white" stroke-width="3" stroke-linecap="round"/>
<path fill-rule="evenodd" clip-rule="evenodd" d="M55.6256 353.623C58.5803 349.93 65.3807 347.62 67.4684 346.825C69.5561 346.03 73.1969 344.796 75.1199 344.193C78.3074 343.193 82.5389 342.877 85.9148 342.877C91.1542 342.877 96.3928 342 101.681 342C106.36 342 110.7 342.439 115.473 342.439C121.531 342.439 127.324 344.193 133.359 344.193C137.422 344.193 141.227 345.07 145.299 345.07C148.153 345.07 151.301 346.219 153.877 347.507C156.126 348.632 158.457 349.519 160.651 350.772C164.7 353.086 170.418 354.206 173.712 357.5C177.732 361.519 181.297 365.408 185.056 369.637C187.51 372.397 189.015 375.621 190.745 380.379C192.475 385.137 192.475 387.137 193.056 389.637C193.637 392.137 194.138 393.659 193.791 399.898C193.444 406.137 187.386 414.503 186.721 416.32C186.056 418.137 184.837 421.209 183.992 422.899C183.014 424.854 181.9 426.839 180.799 428.821C179.838 430.552 178.944 432.594 177.556 434.137C176.168 435.681 174.001 438.548 172.124 440.321C168.791 443.469 166.464 446.085 163.158 449.217C161.932 450.378 164.056 448.356 159.138 452.311C154.22 456.267 154.034 456.626 147.556 459.637C141.078 462.649 144.056 461.637 141.595 461.989C139.134 462.341 132.964 462.866 128.656 462.866H103.056C98.7877 462.866 95.0561 462.637 90.5561 461.55C86.0561 460.463 79.2688 455.969 75.8463 454.068C72.5149 452.217 70.0522 448.488 66.8546 446.489C63.809 444.586 61.0561 441.637 59.0561 438.637C57.0561 435.637 57.2121 436.993 53.7934 430.065C50.3748 423.137 48.3563 416.504 45.2647 409.548C43.4287 405.416 44.2153 403.312 43.2675 399.047C42.836 397.105 43.0561 393.115 43.0561 391.137C43.0561 389.432 43.0725 387.01 43.2675 385.137C43.4624 383.265 43.5561 381.637 44.0561 379.137C44.5561 376.637 44.5748 374.913 45.0561 373.137C45.5374 371.361 46.2776 369.09 47.0725 367.659C48.865 364.433 49.0705 360.593 51.7755 357.888C53.0779 356.585 54.4791 355.057 55.6256 353.623Z" fill="#2797FF" fill-opacity="0.08"/>
<path fill-rule="evenodd" clip-rule="evenodd" d="M402.28 357.623C399.325 353.93 392.525 351.62 390.437 350.825C388.349 350.03 384.708 348.796 382.785 348.193C379.598 347.193 375.366 346.877 371.99 346.877C366.751 346.877 361.512 346 356.224 346C351.545 346 347.205 346.439 342.432 346.439C336.374 346.439 330.581 348.193 324.546 348.193C320.484 348.193 316.678 349.07 312.606 349.07C309.752 349.07 306.604 350.219 304.029 351.507C301.779 352.632 299.448 353.519 297.254 354.772C293.205 357.086 287.487 358.206 284.193 361.5C280.173 365.519 276.609 369.408 272.849 373.637C270.396 376.397 268.89 379.621 267.16 384.379C265.43 389.137 265.43 391.137 264.849 393.637C264.268 396.137 263.767 397.659 264.114 403.898C264.461 410.137 270.52 418.503 271.184 420.32C271.849 422.137 273.069 425.209 273.914 426.899C274.891 428.854 276.005 430.839 277.106 432.821C278.068 434.552 278.961 436.594 280.349 438.137C281.737 439.681 283.904 442.548 285.782 444.321C289.115 447.469 291.441 450.085 294.747 453.217C295.974 454.378 293.849 452.356 298.767 456.311C303.685 460.267 303.871 460.626 310.349 463.637C316.827 466.649 313.849 465.637 316.31 465.989C318.771 466.341 324.942 466.866 329.249 466.866H354.849C359.117 466.866 362.849 466.637 367.349 465.55C371.849 464.463 378.636 459.969 382.059 458.068C385.39 456.217 387.853 452.488 391.051 450.489C394.096 448.586 396.849 445.637 398.849 442.637C400.849 439.637 400.693 440.993 404.112 434.065C407.53 427.137 409.549 420.504 412.64 413.548C414.477 409.416 413.69 407.312 414.638 403.047C415.069 401.105 414.849 397.115 414.849 395.137C414.849 393.432 414.833 391.01 414.638 389.137C414.443 387.265 414.349 385.637 413.849 383.137C413.349 380.637 413.33 378.913 412.849 377.137C412.368 375.361 411.628 373.09 410.833 371.659C409.04 368.433 408.835 364.593 406.13 361.888C404.827 360.585 403.426 359.057 402.28 357.623Z" fill="#2797FF" fill-opacity="0.08"/>
<defs>
<linearGradient id="paint0_linear" x1="236.574" y1="354.355" x2="236.574" y2="527.817" gradientUnits="userSpaceOnUse">
<stop offset="0.401042" stop-color="#FFE4CB" stop-opacity="0"/>
<stop offset="1" stop-color="#FAD2AD"/>
</linearGradient>
<radialGradient id="paint1_radial" cx="0" cy="0" r="1" gradientUnits="userSpaceOnUse" gradientTransform="translate(131.46 386.098) rotate(93.7937) scale(21.1031 45.9573)">
<stop offset="0.385417" stop-color="white"/>
<stop offset="1" stop-color="white" stop-opacity="0"/>
</radialGradient>
<radialGradient id="paint2_radial" cx="0" cy="0" r="1" gradientUnits="userSpaceOnUse" gradientTransform="translate(337 390.5) rotate(90) scale(16.5 40)">
<stop offset="0.505208" stop-color="white"/>
<stop offset="1" stop-color="white" stop-opacity="0"/>
</radialGradient>
</defs>
</svg>
